<svg width="114" height="56" viewBox="0 0 114 56" fill="none" xmlns="http://www.w3.org/2000/svg">
<g clip-path="url(#clip0_5068_164)">
<path d="M57.778 13.9509C57.778 12.8346 58.7066 11.9609 59.8821 11.9609C61.0577 11.9609 61.9272 12.8346 61.9272 13.9509V31.0572C61.9272 38.2082 57.6545 43.4987 49.7908 43.4987C41.9271 43.4987 37.7188 38.2136 37.7188 31.0572V13.9509C37.7188 12.8346 38.5883 11.9609 39.7639 11.9609C40.875 11.9609 41.8036 12.8346 41.8036 13.9509V31.1813C41.8036 36.1589 44.6539 39.7021 49.7908 39.7021C54.9277 39.7021 57.778 36.1589 57.778 31.1813V13.9509Z" fill="white"/>
<path d="M69.6562 13.5587C69.7958 4.88147 74.251 -0.155513 81.3579 -0.00451142C82.9038 0.0278461 84.0203 0.178848 84.5141 0.308278C85.6897 0.621066 86.1245 1.42461 86.1245 2.17423C86.1245 3.47931 85.3193 4.04017 84.3316 4.04017C83.4674 4.04017 82.7857 3.85681 81.4867 3.85681C76.1619 3.85681 74.0578 7.02785 73.8109 12.8792H80.805C81.9162 12.8792 82.6623 13.6881 82.6623 14.8044C82.6623 15.9208 81.9162 16.7351 80.805 16.7351H73.8109V41.5533C73.8109 42.7343 72.9413 43.5433 71.7658 43.5433C70.5258 43.5433 69.6616 42.7343 69.6616 41.5533V13.5587H69.6562Z" fill="white"/>
<path d="M99.048 43.5367L87.6952 15.1484C87.5074 14.7763 87.4376 14.2802 87.4376 13.9674C87.4269 12.9104 88.4092 12.0313 89.6491 12.0151C90.5724 12.0097 91.136 12.5005 91.4527 13.304L100.916 38.6022L110.272 13.1261C110.573 12.3765 111.066 11.8102 111.931 11.8048C113.042 11.794 113.981 12.5328 113.992 13.7139C113.992 14.086 113.815 14.6469 113.691 14.9003L101.549 46.8102C99.0104 53.2386 96.8097 55.935 90.9266 55.9943C89.1338 56.0105 88.3823 55.3957 88.3716 54.1553C88.3608 52.9743 88.9728 52.2193 90.4596 52.2085C95.3496 52.16 96.6272 49.7224 97.9584 46.4165L99.0426 43.5421L99.048 43.5367Z" fill="white"/>
<path d="M32.8959 27.8945C32.8745 26.8105 32.0317 25.9746 30.8884 25.9692C29.7397 25.9692 28.8379 26.8051 28.8165 27.8945H28.8057V28.0616C28.8057 29.7658 28.4783 31.3945 27.8234 32.8991C27.1686 34.4091 26.2775 35.7411 25.1718 36.8521C24.066 37.963 22.7402 38.8582 21.2372 39.5162C19.7396 40.1687 18.1186 40.4977 16.4224 40.4977C16.1379 40.4977 15.8909 40.4869 15.6601 40.4707C15.424 40.4492 15.1609 40.4222 14.8764 40.379C13.3788 40.1795 11.9564 39.7211 10.6574 39.0039C9.34768 38.2866 8.19898 37.3698 7.23279 36.2804C6.26123 35.1911 5.49364 33.9291 4.94076 32.5378C4.38789 31.1572 4.10876 29.6472 4.10876 28.0616C4.10876 26.3575 4.44156 24.7396 5.09106 23.2566C5.74592 21.7627 6.63697 20.4307 7.74809 19.2982C8.84848 18.1656 10.1636 17.265 11.6451 16.6071C13.1212 15.9545 14.7315 15.6256 16.4277 15.6256C18.1239 15.6256 19.7342 15.9438 21.2104 16.5801C22.4879 17.1248 23.6527 17.8744 24.6833 18.8074L17.0343 26.5462L17.0182 26.5678C16.3955 27.4846 16.6049 28.6818 17.5549 29.3613C18.4997 30.0354 19.7128 29.8683 20.3676 28.9838H20.373L29.6753 19.6163C30.1262 19.1633 30.1208 18.4353 29.6753 17.9823L28.0703 16.3644C26.5513 14.8382 24.7692 13.6356 22.7778 12.7835C20.7756 11.9314 18.6392 11.5 16.4277 11.5C14.2162 11.5 12.0852 11.9314 10.1099 12.7835C8.13993 13.6302 6.35248 14.8328 4.77973 16.3698C3.26603 17.9337 2.07976 19.735 1.25313 21.7196C0.426496 23.7042 0.0078125 25.8398 0.0078125 28.0616C0.0078125 30.1163 0.383554 32.1063 1.11893 33.9831C1.85431 35.8544 2.87418 37.5424 4.15707 39.0039C5.43996 40.4653 6.9644 41.6895 8.69818 42.6495C10.4373 43.6094 12.3536 44.2296 14.3987 44.4938C14.7476 44.537 15.0804 44.5693 15.4079 44.5909C15.7407 44.6125 16.0788 44.6233 16.4277 44.6233C18.6392 44.6233 20.7756 44.2026 22.7724 43.3775C24.7692 42.547 26.5566 41.3282 28.0703 39.7643C29.6324 38.1949 30.8401 36.3937 31.6667 34.4091C32.4934 32.4191 32.912 30.2889 32.912 28.067V27.8998H32.9013L32.8959 27.8945Z" fill="white"/>
</g>
<defs>
<clipPath id="clip0_5068_164">
<rect width="114" height="56" fill="white"/>
</clipPath>
</defs>
</svg>
